<svg xmlns="http://www.w3.org/2000/svg" viewBox="0 0 512 512" width="512" height="512">
  <rect width="512" height="512" fill="#0A1326"/>
  <g transform="translate(96,96) scale(4)">
    <circle cx="40" cy="40" r="30" fill="none" stroke="#C4703F" stroke-width="1.5"/>
    <circle cx="40" cy="40" r="25.5" fill="#F4E8CE"/>
    <circle cx="40" cy="40" r="25.5" fill="none" stroke="#C4703F" stroke-width="4.5"/>
    <g stroke="#C4703F" stroke-width="2" stroke-linecap="round">
      <line x1="70" y1="40" x2="73.5" y2="40"/><line x1="61.2" y1="61.2" x2="63.7" y2="63.7"/><line x1="40" y1="70" x2="40" y2="73.5"/><line x1="18.8" y1="61.2" x2="16.3" y2="63.7"/><line x1="10" y1="40" x2="6.5" y2="40"/><line x1="18.8" y1="18.8" x2="16.3" y2="16.3"/><line x1="40" y1="10" x2="40" y2="6.5"/><line x1="61.2" y1="18.8" x2="63.7" y2="16.3"/>
    </g>
    <path d="M25 41 C30 31 35 49 40 40 C45 31 50 49 55 40" fill="none" stroke="#2B2016" stroke-width="3" stroke-linecap="round" stroke-linejoin="round"/>
  </g>
</svg>
